# xmcd
# Track frame offsets:
# 150
# 17360
# 37951
# 58683
# 81986
#
# Disc length: 1311 seconds
# Revision: 0
# Processed by: cddbd v1.5.2PL0 Copyright (c) Steve Scherf et al.
# Submitted via: VisiTrax 2.11.0.264 - For more info visit www.synapsa.com
#
DISCID=31051d05
DTITLE=Blake Ralph - Blake Ralph
DYEAR=2008
DGENRE=
TTITLE0=Falling for you
TTITLE1=Breaking down
TTITLE2=Another day
TTITLE3=Be with you
TTITLE4=Here and now
EXTD=
EXTT0=
EXTT1=
EXTT2=
EXTT3=
EXTT4=
PLAYORDER=
